<svg width="259" height="234" viewBox="0 0 259 234" fill="none" xmlns="http://www.w3.org/2000/svg">
<g clip-path="url(#clip0_3550_5531)">
<path d="M250.354 136.195C243.144 158.049 227.608 182.008 204.739 189.806C170.191 201.596 167.092 229.927 104.406 229.735C95.2515 229.748 86.1231 228.767 77.1805 226.812C72.8084 225.84 68.5026 224.59 64.2894 223.07C27.1449 209.672 6.80894 177.807 3.89617 143.757C0.0748257 98.9702 30.5494 76.3788 50.3936 63.0549C70.2379 49.7309 92.8987 0.283236 154.543 -0.0107134C163.953 -0.0950698 173.341 0.907435 182.521 2.97688C203.45 7.78697 224.989 19.3686 237.928 37.0216C238.895 38.347 239.825 39.6939 240.723 41.0941C258.195 68.2604 260.188 106.394 250.354 136.195Z" fill="#E6EFFD"/>
<path d="M25.611 23.313H18.2943V30.6297H25.611V23.313Z" stroke="black" stroke-width="0.534454" stroke-linecap="round" stroke-linejoin="round"/>
<path d="M28.5398 26.9688H60.7407" stroke="black" stroke-width="0.534454" stroke-linecap="round" stroke-linejoin="round"/>
<path d="M25.611 33.5586H18.2943V40.8753H25.611V33.5586Z" stroke="black" stroke-width="0.534454" stroke-linecap="round" stroke-linejoin="round"/>
<path d="M28.5398 37.2192H60.7407" stroke="black" stroke-width="0.534454" stroke-linecap="round" stroke-linejoin="round"/>
<path d="M25.611 43.8037H18.2943V51.1204H25.611V43.8037Z" stroke="black" stroke-width="0.534454" stroke-linecap="round" stroke-linejoin="round"/>
<path d="M28.5398 47.4648H60.7407" stroke="black" stroke-width="0.534454" stroke-linecap="round" stroke-linejoin="round"/>
<path d="M25.611 54.0493H18.2943V61.366H25.611V54.0493Z" stroke="black" stroke-width="0.534454" stroke-linecap="round" stroke-linejoin="round"/>
<path d="M28.5398 57.7104H60.7407" stroke="black" stroke-width="0.534454" stroke-linecap="round" stroke-linejoin="round"/>
<path d="M25.611 64.2949H18.2943V71.6116H25.611V64.2949Z" stroke="black" stroke-width="0.534454" stroke-linecap="round" stroke-linejoin="round"/>
<path d="M28.5398 67.9561H60.7407" stroke="black" stroke-width="0.534454" stroke-linecap="round" stroke-linejoin="round"/>
<path d="M25.611 74.5405H18.2943V81.8572H25.611V74.5405Z" stroke="black" stroke-width="0.534454" stroke-linecap="round" stroke-linejoin="round"/>
<path d="M28.5398 78.2012H60.7407" stroke="black" stroke-width="0.534454" stroke-linecap="round" stroke-linejoin="round"/>
<path d="M230.643 152.448H225.609V157.482H230.643V152.448Z" stroke="black" stroke-width="0.534454" stroke-linecap="round" stroke-linejoin="round"/>
<path d="M232.658 154.965H254.811" stroke="black" stroke-width="0.534454" stroke-linecap="round" stroke-linejoin="round"/>
<path d="M230.643 159.492H225.609V164.526H230.643V159.492Z" stroke="black" stroke-width="0.534454" stroke-linecap="round" stroke-linejoin="round"/>
<path d="M232.658 162.009H254.811" stroke="black" stroke-width="0.534454" stroke-linecap="round" stroke-linejoin="round"/>
<path d="M230.643 166.541H225.609V171.576H230.643V166.541Z" stroke="black" stroke-width="0.534454" stroke-linecap="round" stroke-linejoin="round"/>
<path d="M232.658 169.059H254.811" stroke="black" stroke-width="0.534454" stroke-linecap="round" stroke-linejoin="round"/>
<path d="M230.643 173.591H225.609V178.625H230.643V173.591Z" stroke="black" stroke-width="0.534454" stroke-linecap="round" stroke-linejoin="round"/>
<path d="M232.658 176.108H254.811" stroke="black" stroke-width="0.534454" stroke-linecap="round" stroke-linejoin="round"/>
<path d="M230.643 180.64H225.609V185.675H230.643V180.64Z" stroke="black" stroke-width="0.534454" stroke-linecap="round" stroke-linejoin="round"/>
<path d="M232.658 183.157H254.811" stroke="black" stroke-width="0.534454" stroke-linecap="round" stroke-linejoin="round"/>
<path d="M230.643 187.689H225.609V192.724H230.643V187.689Z" stroke="black" stroke-width="0.534454" stroke-linecap="round" stroke-linejoin="round"/>
<path d="M232.658 190.202H254.811" stroke="black" stroke-width="0.534454" stroke-linecap="round" stroke-linejoin="round"/>
<path d="M37.2407 202.296H17.8187V216.198H37.2407V202.296Z" stroke="black" stroke-width="0.534454" stroke-linecap="round" stroke-linejoin="round"/>
<path d="M17.8187 202.296L27.5297 209.25L37.2407 202.296" stroke="black" stroke-width="0.534454" stroke-linecap="round" stroke-linejoin="round"/>
<path d="M6.40274 233.679H254.523" stroke="black" stroke-width="0.534454" stroke-miterlimit="10"/>
<path d="M5.48884 165.681C7.23116 165.397 10.5074 163.174 10.5127 163.174C10.5181 163.174 8.37489 161.459 8.24128 161.368C6.52568 160.299 2.5921 159.283 0.88185 160.748C0.603677 160.998 0.381262 161.305 0.22902 161.647C0.0767783 161.989 -0.00189209 162.359 -0.00189209 162.733C-0.00189209 163.108 0.0767783 163.478 0.22902 163.82C0.381262 164.162 0.603677 164.468 0.88185 164.719C2.04696 165.82 4.00306 165.921 5.48884 165.681Z" fill="black"/>
<path d="M12.8536 174.568C14.3982 173.863 16.8086 171.089 17.001 170.87C18.5851 172.252 20.2599 173.527 22.0141 174.686C23.0296 175.365 24.0771 176.022 25.1353 176.664C24.6009 176.444 24.1359 176.247 24.0664 176.231C22.1371 175.664 18.0699 175.696 16.8032 177.572C16.6024 177.888 16.4703 178.243 16.4155 178.614C16.3608 178.985 16.3845 179.363 16.4853 179.724C16.5861 180.084 16.7617 180.42 17.0006 180.709C17.2395 180.997 17.5364 181.232 17.8721 181.399C19.2724 182.158 21.1911 181.741 22.5539 181.116C23.9168 180.49 26.0493 178.155 26.5944 177.535L27.8183 178.262C29.7851 179.421 31.7465 180.565 33.6385 181.746C34.3066 182.163 34.9479 182.596 35.5946 183.029C35.1243 182.836 34.7288 182.671 34.6647 182.655C32.7353 182.088 28.6681 182.12 27.4014 184.002C27.2006 184.318 27.0685 184.673 27.0137 185.044C26.959 185.414 26.9828 185.792 27.0836 186.153C27.1844 186.514 27.3599 186.849 27.5988 187.138C27.8377 187.427 28.1347 187.662 28.4703 187.828C29.8706 188.582 31.7839 188.165 33.1521 187.54C34.5203 186.914 36.439 184.809 37.0964 184.071C37.7431 184.531 38.3898 184.996 38.9937 185.471C39.3999 185.808 39.8114 186.102 40.2016 186.46L41.356 187.476C42.0722 188.16 42.8151 188.86 43.4938 189.544C43.9695 190.02 44.4184 190.474 44.8674 190.939C44.21 190.517 42.9006 189.715 42.7883 189.661C40.9605 188.812 36.9094 188.24 35.4022 189.891C35.1555 190.173 34.9707 190.504 34.8599 190.861C34.7491 191.219 34.7148 191.596 34.7592 191.968C34.8035 192.34 34.9255 192.698 35.1173 193.02C35.3091 193.342 35.5664 193.62 35.8725 193.836C37.1445 194.792 39.0792 194.675 40.5436 194.263C42.147 193.809 44.8193 191.537 45.1774 191.249C45.9256 192.018 46.6418 192.772 47.3152 193.488C48.7903 195.092 50.0623 196.529 51.1205 197.764L52.3658 196.962C51.2381 195.695 49.8752 194.204 48.2879 192.569C47.5343 191.783 46.7166 190.966 45.8668 190.132C46.5219 189.203 47.1233 188.238 47.6679 187.24C49.314 187.668 52.5902 187.294 53.0124 187.24C53.2102 188.309 53.3919 189.314 53.5469 190.281C53.8836 192.307 54.1348 194.129 54.3272 195.69L55.674 194.824C55.4549 193.408 55.193 191.805 54.867 190.052C54.6693 188.983 54.4341 187.844 54.1882 186.685C54.5891 186.53 57.8867 185.236 59.0464 184.055C60.1153 182.986 61.1415 181.319 60.9117 179.742C60.8683 179.37 60.7473 179.011 60.5564 178.689C60.3656 178.367 60.1092 178.089 59.8038 177.872C59.4984 177.655 59.1509 177.505 58.7838 177.431C58.4167 177.358 58.0382 177.362 57.6729 177.444C55.487 177.978 54.0653 181.81 53.9317 183.82C53.9317 183.937 53.9852 185.231 54.0386 186.049C53.9371 185.573 53.8408 185.113 53.7286 184.622C53.5095 183.66 53.2636 182.698 53.0018 181.671L52.5688 180.175C52.4352 179.673 52.2268 179.159 52.0344 178.641C51.6175 177.46 51.1365 176.284 50.6234 175.103C51.4679 174.911 54.4608 174.184 55.6687 173.28C56.8765 172.377 58.1539 170.891 58.1592 169.304C58.1736 168.93 58.109 168.557 57.9699 168.209C57.8307 167.861 57.6199 167.547 57.3513 167.286C57.0827 167.025 56.7623 166.823 56.4107 166.694C56.0591 166.564 55.6843 166.511 55.3106 166.536C53.0659 166.755 51.0831 170.304 50.6502 172.27C50.6502 172.393 50.4791 173.842 50.4097 174.638C50.0997 173.932 49.7897 173.227 49.4476 172.527C48.4696 170.496 47.4167 168.476 46.3745 166.45C46.0539 165.83 45.7439 165.21 45.4285 164.59C45.7278 164.526 49.3033 163.735 50.6609 162.72C51.8634 161.822 53.1461 160.336 53.1514 158.743C53.165 158.369 53.0998 157.996 52.96 157.648C52.8201 157.301 52.6088 156.987 52.3397 156.726C52.0706 156.466 51.7497 156.265 51.3979 156.136C51.046 156.008 50.6711 155.954 50.2974 155.98C48.0581 156.199 46.0699 159.748 45.6423 161.715C45.6103 161.864 45.3965 163.944 45.3698 164.478C44.6803 163.11 44.0016 161.742 43.3923 160.368C42.5585 158.513 41.8445 156.606 41.2545 154.66C41.3934 154.628 45.1293 153.821 46.5188 152.784C47.7214 151.881 49.004 150.395 49.0094 148.808C49.023 148.433 48.9578 148.06 48.8179 147.713C48.6781 147.365 48.4668 147.051 48.1977 146.791C47.9285 146.53 47.6077 146.329 47.2558 146.201C46.904 146.072 46.5291 146.019 46.1554 146.045C43.916 146.264 41.9279 149.813 41.5003 151.779C41.4682 151.929 41.2384 154.168 41.2277 154.58C41.1957 154.468 41.1476 154.355 41.1155 154.238C40.5827 152.269 40.225 150.257 40.0466 148.225C39.9344 147.108 39.8863 146.029 39.8702 144.976C40.5811 144.901 43.8252 144.505 45.1774 143.709C46.5295 142.913 47.9084 141.609 48.0901 140.027C48.1443 139.656 48.1202 139.279 48.0191 138.918C47.9181 138.558 47.7425 138.223 47.5036 137.935C47.2648 137.646 46.9681 137.412 46.6327 137.245C46.2974 137.079 45.9308 136.985 45.5568 136.97C43.3068 136.938 40.9445 140.246 40.2978 142.154C40.2657 142.261 40.0252 143.351 39.8649 144.153C39.8649 143.677 39.8649 143.191 39.8649 142.736C39.8649 141.031 40.0092 139.471 40.1321 138.092C40.2069 137.306 40.2924 136.601 40.378 135.954C41.0353 135.511 43.6648 133.699 44.4826 132.395C45.3003 131.091 45.9363 129.274 45.3698 127.788C45.2476 127.434 45.0525 127.11 44.797 126.836C44.5416 126.562 44.2315 126.345 43.8868 126.199C43.5422 126.053 43.1707 125.981 42.7964 125.988C42.4221 125.994 42.0534 126.08 41.7141 126.238C39.6992 127.248 39.1273 131.272 39.4373 133.266C39.4373 133.437 40.1909 136.077 40.2283 136.056L40.2657 136.029C40.1695 136.665 40.0787 137.344 39.9878 138.092C39.8328 139.471 39.6778 141.031 39.619 142.742C39.5341 144.585 39.5573 146.432 39.6885 148.273C39.823 150.336 40.1432 152.382 40.6452 154.387C40.6452 154.387 40.6452 154.43 40.6452 154.457C40.2978 153.896 39.2663 152.357 39.1754 152.25C37.8767 150.71 34.4616 148.509 32.3772 149.364C32.0352 149.516 31.7291 149.739 31.4788 150.018C31.2284 150.296 31.0394 150.624 30.924 150.98C30.8086 151.337 30.7694 151.713 30.8089 152.086C30.8484 152.458 30.9657 152.818 31.1533 153.142C31.9015 154.548 33.7294 155.28 35.2151 155.488C36.888 155.75 40.4314 154.767 40.7147 154.687C41.2732 156.715 41.966 158.704 42.7883 160.641C43.264 161.768 43.7771 162.891 44.3062 164.013C43.9855 163.537 43.7023 163.115 43.6542 163.056C42.3554 161.522 38.9349 159.315 36.8506 160.176C36.5115 160.332 36.209 160.558 35.9626 160.839C35.7162 161.12 35.5314 161.449 35.4201 161.805C35.3088 162.162 35.2735 162.538 35.3164 162.909C35.3594 163.28 35.4796 163.638 35.6694 163.96C36.423 165.365 38.2508 166.097 39.7366 166.311C41.2224 166.525 44.2795 165.777 45.0812 165.547C45.2896 165.974 45.4873 166.407 45.6958 166.835C46.6952 168.882 47.7053 170.918 48.6299 172.949C48.9559 173.665 49.2552 174.381 49.5492 175.087C49.2713 174.665 49.0147 174.312 49.0147 174.264C47.7107 172.725 44.2955 170.523 42.2111 171.378C41.8632 171.527 41.551 171.749 41.2952 172.029C41.0395 172.308 40.8461 172.639 40.7279 172.998C40.6096 173.358 40.5692 173.739 40.6093 174.116C40.6494 174.492 40.7691 174.856 40.9605 175.183C41.7141 176.583 43.5419 177.294 45.0277 177.529C46.5135 177.765 49.2713 177.059 50.2279 176.808C50.5112 177.545 50.7945 178.294 51.035 179.026C51.19 179.528 51.3717 179.999 51.4999 180.517L51.9008 182.019C52.1199 182.986 52.3551 183.98 52.5475 184.926C52.6811 185.589 52.804 186.214 52.9269 186.85C52.6063 186.134 51.9596 184.744 51.8901 184.638C50.909 183.162 49.5657 181.962 47.9886 181.153C47.8855 180.986 47.7693 180.826 47.6412 180.677C47.3997 180.391 47.1007 180.158 46.7636 179.995C46.4264 179.832 46.0587 179.741 45.6843 179.729C45.3098 179.717 44.937 179.783 44.59 179.925C44.243 180.066 43.9296 180.279 43.6702 180.549C42.1523 182.217 43.0663 186.177 44.071 187.924C44.1298 188.026 44.8994 189.074 45.3911 189.726C45.0437 189.384 44.707 189.052 44.3222 188.71C43.6114 188.021 42.8739 187.358 42.0882 186.642L40.9017 185.637C40.5116 185.29 40.0573 184.974 39.6351 184.638C38.6303 183.884 37.5828 183.168 36.5032 182.468C37.1071 181.837 39.1754 179.582 39.7099 178.16C40.2443 176.738 40.4688 174.798 39.5977 173.468C39.4027 173.148 39.1427 172.873 38.8348 172.661C38.5268 172.448 38.1776 172.303 37.8098 172.234C37.442 172.165 37.0638 172.174 36.6997 172.26C36.3356 172.346 35.9937 172.508 35.6961 172.735C33.9431 174.157 34.2424 178.213 34.9746 180.089C35.0174 180.207 35.6908 181.495 36.0756 182.195C35.4236 181.778 34.7822 181.361 34.1088 180.961C32.1741 179.811 30.1752 178.705 28.1924 177.593L26.3753 176.562C26.5944 176.343 29.1384 173.713 29.7103 172.121C30.2447 170.704 30.4638 168.759 29.5927 167.428C29.3977 167.109 29.1378 166.834 28.8298 166.621C28.5218 166.409 28.1726 166.263 27.8048 166.194C27.437 166.125 27.0588 166.134 26.6947 166.221C26.3306 166.307 25.9887 166.469 25.6912 166.696C23.9382 168.118 24.2428 172.169 24.9697 174.045C25.0231 174.189 25.9958 176.038 26.2684 176.498C24.9376 175.739 23.5961 174.975 22.3508 174.162C20.6308 173.077 18.983 171.88 17.4178 170.581C17.5194 170.48 20.1916 167.743 20.7742 166.113C21.2766 164.697 21.5278 162.752 20.6566 161.421C20.4616 161.102 20.2017 160.827 19.8937 160.614C19.5857 160.402 19.2365 160.256 18.8687 160.187C18.5009 160.118 18.1227 160.127 17.7586 160.213C17.3945 160.3 17.0526 160.462 16.7551 160.689C15.0021 162.11 15.3067 166.167 16.0336 168.043C16.0924 168.187 17.1346 170.181 17.3537 170.528L17.0704 170.309C15.5378 168.962 14.1283 167.481 12.8589 165.884C12.1428 165.012 11.5121 164.141 10.9135 163.275C11.448 162.816 13.9546 160.694 14.6547 159.288C15.3548 157.883 15.7717 156.028 15.0502 154.612C14.8917 154.273 14.6639 153.971 14.3815 153.726C14.0991 153.481 13.7684 153.298 13.4107 153.189C13.053 153.079 12.6764 153.046 12.3052 153.092C11.9339 153.137 11.5764 153.26 11.2556 153.452C9.35827 154.671 9.21397 158.738 9.72704 160.683C9.75911 160.79 10.16 161.832 10.4699 162.586C10.2027 162.196 9.93548 161.795 9.67894 161.41C8.75968 159.978 8.00076 158.604 7.34338 157.386C6.97461 156.691 6.65393 156.055 6.35998 155.456C6.66462 154.724 7.85645 151.763 7.81904 150.224C7.78163 148.685 7.31131 146.814 6.01793 145.89C5.72094 145.661 5.37924 145.498 5.01503 145.41C4.65082 145.322 4.27222 145.312 3.90382 145.38C3.53541 145.448 3.18543 145.593 2.87658 145.805C2.56773 146.017 2.30692 146.292 2.11108 146.611C0.99407 148.567 2.73639 152.244 4.0939 153.73C4.21148 153.858 6.27447 155.659 6.29051 155.622C6.29219 155.608 6.29219 155.594 6.29051 155.579C6.56308 156.162 6.85703 156.782 7.19908 157.455C7.82973 158.69 8.56193 160.079 9.45447 161.538C10.408 163.118 11.4538 164.641 12.5864 166.097C13.8388 167.74 15.2338 169.269 16.7551 170.667L16.8139 170.715C16.21 170.437 14.5104 169.721 14.3714 169.684C12.4367 169.117 8.37487 169.149 7.10822 171.03C6.90738 171.347 6.77528 171.702 6.72052 172.072C6.66576 172.443 6.68955 172.821 6.79035 173.182C6.89114 173.543 7.06669 173.878 7.30561 174.167C7.54452 174.456 7.84145 174.691 8.17713 174.857C9.57205 175.611 11.4854 175.183 12.8536 174.568Z" fill="black"/>
<path d="M39.5923 144.72C39.6297 144.72 38.7693 142.117 38.6944 141.962C37.8447 140.134 35.135 137.104 32.8956 137.382C32.526 137.439 32.1725 137.573 31.858 137.776C31.5436 137.978 31.2752 138.245 31.0701 138.558C30.8651 138.87 30.728 139.223 30.6678 139.592C30.6075 139.961 30.6254 140.339 30.7204 140.701C31.0731 142.256 32.6498 143.421 34.018 144.041C35.616 144.746 39.587 144.72 39.5923 144.72Z" fill="black"/>
<path d="M199.121 26.7706C200.324 27.9678 203.889 29.2719 203.889 29.2772C203.889 29.2826 204.033 26.6637 204.022 26.498C203.883 24.574 202.478 20.9344 200.377 20.4213C200.026 20.3458 199.663 20.3452 199.312 20.4196C198.96 20.494 198.628 20.6417 198.338 20.853C198.047 21.0644 197.805 21.3346 197.626 21.6461C197.447 21.9575 197.335 22.3033 197.299 22.6607C197.085 24.1732 198.09 25.7552 199.121 26.7706Z" fill="black"/>
<path d="M196.337 37.4865C197.748 38.2935 201.259 38.6142 201.537 38.6356C201.351 40.6448 201.299 42.6642 201.382 44.6803C201.42 45.8561 201.5 47.0372 201.591 48.2184C201.468 47.6839 201.355 47.2082 201.329 47.1494C200.687 45.327 198.373 42.1897 196.209 42.2485C195.85 42.2692 195.5 42.365 195.181 42.5297C194.863 42.6945 194.582 42.9244 194.358 43.2046C194.133 43.4848 193.971 43.809 193.88 44.1563C193.789 44.5035 193.772 44.8659 193.83 45.2201C194.028 46.7379 195.434 47.9939 196.679 48.71C197.924 49.4262 200.955 49.779 201.73 49.8431C201.772 50.2974 201.804 50.7517 201.847 51.2059C202.05 53.3812 202.259 55.5511 202.382 57.6835C202.435 58.4371 202.456 59.18 202.478 59.9229C202.371 59.4526 202.275 59.0517 202.253 58.9929C201.607 57.1705 199.292 54.0332 197.133 54.0973C196.774 54.1173 196.424 54.2126 196.104 54.377C195.785 54.5414 195.504 54.7713 195.279 55.0515C195.054 55.3318 194.891 55.6563 194.799 56.0039C194.708 56.3515 194.691 56.7143 194.75 57.0689C194.947 58.5814 196.353 59.8374 197.598 60.5536C198.843 61.2697 201.569 61.5744 202.51 61.6706C202.51 62.4348 202.51 63.1991 202.483 63.9366C202.451 64.439 202.451 64.9254 202.387 65.4331C202.323 65.9408 202.291 66.4272 202.237 66.9189C202.109 67.8595 201.981 68.8322 201.831 69.7462C201.73 70.3822 201.623 70.9861 201.516 71.5954C201.473 70.8471 201.366 69.3827 201.339 69.2598C200.981 67.3625 199.17 63.9153 197.021 63.6427C196.664 63.6081 196.303 63.6492 195.963 63.7634C195.622 63.8776 195.31 64.0622 195.045 64.3053C194.781 64.5484 194.571 64.8444 194.429 65.1741C194.287 65.5038 194.216 65.8598 194.22 66.2188C194.183 67.7473 195.375 69.201 196.503 70.0989C197.748 71.0823 201.035 71.9107 201.446 72.0122C201.265 73.0224 201.083 74.0004 200.912 74.925C200.5 76.9613 200.089 78.7677 199.715 80.2696L201.035 80.804C201.388 79.2007 201.783 77.3194 202.168 75.1655C202.355 74.1394 202.531 73.0277 202.702 71.916C203.792 71.9041 204.881 71.831 205.962 71.6969C206.556 73.2148 208.683 75.5557 208.961 75.855C208.255 76.6032 207.56 77.314 206.898 77.9928C205.508 79.3877 204.225 80.6063 203.124 81.6324L204.551 82.1669C205.535 81.2049 206.63 80.0985 207.812 78.8586C208.533 78.1104 209.287 77.2926 210.051 76.4429C210.398 76.6727 213.258 78.5166 214.824 78.7571C216.251 78.9708 218.127 78.8533 219.222 77.7843C219.487 77.5424 219.698 77.2475 219.842 76.9187C219.986 76.5899 220.059 76.2346 220.056 75.8757C220.054 75.5169 219.976 75.1627 219.827 74.8359C219.679 74.5092 219.464 74.2172 219.195 73.979C217.539 72.5895 213.776 73.6156 212.141 74.6471C212.045 74.7059 211.072 75.4809 210.468 75.9779C210.778 75.6305 211.088 75.2991 211.403 74.909C212.034 74.1982 212.638 73.4713 213.295 72.691L214.214 71.5152C214.53 71.125 214.813 70.6814 215.118 70.2592C215.807 69.2705 216.454 68.239 217.084 67.1808C217.704 67.7152 219.949 69.65 221.333 70.0829C222.718 70.5158 224.583 70.6815 225.823 69.7943C226.116 69.5939 226.365 69.3346 226.553 69.0328C226.741 68.731 226.864 68.3934 226.914 68.0414C226.965 67.6895 226.941 67.3309 226.845 66.9886C226.749 66.6462 226.583 66.3276 226.357 66.0531C224.925 64.4497 221.055 64.8719 219.281 65.6415C219.174 65.6896 217.961 66.3844 217.309 66.7799C217.678 66.1386 218.057 65.5079 218.41 64.8452C219.441 62.9479 220.425 60.9918 221.413 59.0464C221.718 58.4531 222.023 57.8599 222.333 57.272C222.552 57.4698 225.171 59.8107 226.721 60.2917C228.094 60.7246 229.97 60.8903 231.21 60.0031C231.504 59.8027 231.752 59.5434 231.94 59.2416C232.128 58.9398 232.251 58.6022 232.302 58.2503C232.352 57.8983 232.328 57.5397 232.232 57.1974C232.137 56.8551 231.97 56.5364 231.744 56.2619C230.317 54.6585 226.443 55.0807 224.674 55.8504C224.54 55.9091 222.803 56.9193 222.37 57.1865C223.049 55.8824 223.733 54.589 224.46 53.3438C225.437 51.6555 226.521 50.0311 227.704 48.4802C227.806 48.5764 230.526 51.0296 232.113 51.5266C233.492 51.9542 235.363 52.1199 236.608 51.2327C236.902 51.0323 237.15 50.773 237.338 50.4712C237.526 50.1694 237.649 49.8318 237.7 49.4799C237.75 49.1279 237.726 48.7693 237.63 48.427C237.535 48.0847 237.368 47.7661 237.142 47.4915C235.715 45.8881 231.841 46.3157 230.066 47.0853C229.927 47.1441 228.062 48.2237 227.736 48.4428C227.806 48.352 227.864 48.2558 227.939 48.1649C229.169 46.6443 230.532 45.2366 232.012 43.9587C232.824 43.2426 233.615 42.6012 234.438 41.9973C234.903 42.5318 237.03 44.8139 238.404 45.4178C239.777 46.0217 241.573 46.3638 242.904 45.6209C243.223 45.4555 243.503 45.225 243.728 44.9442C243.952 44.6634 244.115 44.3387 244.205 43.991C244.296 43.6434 244.313 43.2806 244.254 42.9261C244.196 42.5716 244.063 42.2333 243.866 41.9332C242.626 40.1641 238.724 40.1802 236.881 40.752C236.779 40.7841 235.812 41.2117 235.079 41.5323C235.448 41.2651 235.822 40.9979 236.18 40.736C237.522 39.7954 238.805 39.0204 239.948 38.3416C240.6 37.9568 241.199 37.6255 241.76 37.3208C242.471 37.5881 245.352 38.6142 246.827 38.518C248.302 38.4218 250.076 37.9034 250.915 36.626C251.122 36.3328 251.264 35.9995 251.334 35.6476C251.403 35.2958 251.398 34.9333 251.319 34.5836C251.239 34.2339 251.087 33.9048 250.872 33.6177C250.657 33.3306 250.384 33.0918 250.071 32.9169C248.152 31.9175 244.7 33.7293 243.326 35.0547C243.209 35.1723 241.557 37.1926 241.594 37.2353H241.637C241.103 37.5186 240.51 37.8232 239.879 38.176C238.719 38.828 237.415 39.5816 236.047 40.4955C234.562 41.4628 233.134 42.5157 231.771 43.6488C230.241 44.9087 228.828 46.3039 227.549 47.8175C227.536 47.8381 227.522 47.8577 227.506 47.8763C227.747 47.2884 228.367 45.6316 228.399 45.498C228.869 43.622 228.671 39.7312 226.833 38.5875C226.522 38.406 226.177 38.292 225.82 38.2528C225.462 38.2137 225.101 38.2502 224.758 38.3601C224.416 38.4701 224.101 38.6509 223.833 38.8908C223.565 39.1307 223.351 39.4243 223.204 39.7526C222.536 41.1208 223.006 42.9593 223.658 44.2313C224.396 45.6797 227.148 47.887 227.367 48.0634C226.101 49.6331 224.942 51.2866 223.899 53.0124C223.284 54.0118 222.696 55.0433 222.124 56.0802C222.317 55.5457 222.482 55.1075 222.498 55.0113C222.963 53.1407 222.766 49.2445 220.932 48.1061C220.622 47.9247 220.277 47.8106 219.919 47.7715C219.562 47.7323 219.2 47.7688 218.858 47.8788C218.516 47.9887 218.2 48.1695 217.932 48.4094C217.665 48.6493 217.45 48.943 217.304 49.2712C216.635 50.6394 217.106 52.4779 217.758 53.7446C218.41 55.0113 220.729 56.9513 221.344 57.4858C221.13 57.8866 220.906 58.2821 220.692 58.6883C219.66 60.6123 218.64 62.5364 217.576 64.3963C217.202 65.0537 216.812 65.6843 216.422 66.315C216.593 65.8607 216.732 65.4759 216.748 65.4171C217.213 63.5411 217.015 59.645 215.182 58.5066C214.871 58.3251 214.526 58.2111 214.169 58.1719C213.811 58.1328 213.45 58.1693 213.107 58.2792C212.765 58.3892 212.45 58.57 212.182 58.8099C211.914 59.0498 211.7 59.3434 211.553 59.6717C210.885 61.0399 211.355 62.8784 212.007 64.1504C212.659 65.4224 214.754 67.1915 215.481 67.7901C215.064 68.4261 214.647 69.0674 214.214 69.666C213.904 70.0668 213.637 70.473 213.311 70.8632C212.985 71.2533 212.675 71.6328 212.365 72.0176C211.735 72.7284 211.093 73.4713 210.463 74.1554C210.03 74.6311 209.602 75.0747 209.18 75.5289C209.559 74.8769 210.275 73.5942 210.324 73.482C210.926 71.8931 211.11 70.176 210.858 68.4955C210.932 68.3229 210.991 68.1441 211.034 67.9611C211.123 67.6116 211.136 67.2474 211.074 66.8923C211.012 66.5373 210.875 66.1993 210.674 65.9007C210.472 65.602 210.209 65.3493 209.903 65.1591C209.597 64.9689 209.254 64.8456 208.897 64.7971C206.759 64.5566 204.177 67.4694 203.381 69.2438C203.333 69.3507 202.953 70.5318 202.724 71.28C202.788 70.8204 202.863 70.3715 202.927 69.8958C203.055 68.9552 203.162 68.0145 203.279 66.9991C203.317 66.5074 203.36 66.0157 203.397 65.5133C203.434 65.0109 203.44 64.4871 203.461 63.9687C203.488 62.7662 203.461 61.5423 203.397 60.313C204.22 60.4306 207.138 60.7941 208.544 60.3932C209.949 59.9924 211.585 59.0945 212.13 57.6728C212.271 57.3431 212.341 56.9873 212.335 56.6287C212.33 56.2702 212.248 55.9168 212.097 55.5916C211.946 55.2664 211.728 54.9768 211.457 54.7414C211.187 54.5061 210.87 54.3303 210.527 54.2256C208.442 53.6591 205.455 56.1657 204.402 57.7851C204.338 57.8866 203.712 59.1319 203.381 59.8213C203.344 59.0838 203.306 58.3463 203.237 57.6034C203.05 55.4655 202.793 53.2796 202.542 51.1097C202.467 50.447 202.398 49.7843 202.328 49.1216C202.622 49.1643 206.069 49.656 207.673 49.2231C209.057 48.8223 210.708 47.9244 211.254 46.5028C211.394 46.173 211.464 45.8172 211.459 45.4586C211.453 45.1001 211.372 44.7467 211.221 44.4215C211.069 44.0963 210.851 43.8067 210.581 43.5713C210.31 43.336 209.993 43.1602 209.65 43.0555C207.56 42.489 204.578 44.9956 203.525 46.615C203.445 46.7379 202.547 48.5337 202.344 48.9987C202.189 47.5396 202.045 46.0805 201.965 44.6375C201.839 42.6923 201.839 40.7411 201.965 38.7959C202.104 38.7959 205.706 39.3624 207.309 38.9028C208.699 38.502 210.35 37.6041 210.895 36.1824C211.035 35.8526 211.105 35.497 211.099 35.1386C211.093 34.7803 211.011 34.4273 210.86 34.1023C210.709 33.7774 210.491 33.4878 210.221 33.2523C209.951 33.0168 209.635 32.8406 209.292 32.7352C207.202 32.1687 204.215 34.6753 203.167 36.2947C203.082 36.4229 202.098 38.3523 201.97 38.7158C201.97 38.6035 201.97 38.4859 201.97 38.3737C202.155 36.4254 202.513 34.4973 203.039 32.6123C203.317 31.5434 203.643 30.5867 203.98 29.6407C204.642 29.8118 207.689 30.56 209.169 30.3034C210.65 30.0469 212.333 29.3468 213.033 27.9946C213.208 27.6808 213.315 27.3338 213.348 26.9759C213.38 26.6181 213.337 26.2575 213.221 25.9174C213.105 25.5773 212.919 25.2653 212.675 25.0017C212.431 24.738 212.134 24.5287 211.804 24.387C209.794 23.596 206.55 25.7606 205.326 27.2571C205.257 27.3372 204.674 28.2351 204.258 28.8978C204.418 28.4703 204.573 28.032 204.733 27.6258C205.332 26.1026 205.973 24.7451 206.55 23.5533C206.887 22.8745 207.202 22.2653 207.502 21.7041C208.245 21.5277 211.216 20.8009 212.392 19.903C213.568 19.0051 214.76 17.5995 214.754 16.0763C214.766 15.717 214.701 15.3594 214.566 15.0266C214.43 14.6938 214.225 14.3934 213.966 14.1448C213.706 13.8963 213.397 13.7052 213.059 13.584C212.72 13.4628 212.36 13.4142 212.002 13.4414C209.864 13.6659 207.972 17.0811 207.571 18.973C207.539 19.1334 207.293 21.7522 207.331 21.7415H207.379C207.074 22.2759 206.759 22.8585 206.427 23.4998C205.823 24.6863 205.15 26.0332 204.514 27.5457C203.813 29.1698 203.207 30.833 202.697 32.5268C202.147 34.435 201.766 36.388 201.559 38.363C201.561 38.3861 201.561 38.4094 201.559 38.4325C201.436 37.8125 201.024 36.0862 200.992 35.9526C200.351 34.1355 198.036 30.9929 195.872 31.057C195.514 31.0777 195.164 31.1736 194.845 31.3383C194.526 31.503 194.245 31.7329 194.021 32.0131C193.797 32.2933 193.634 32.6176 193.543 32.9648C193.452 33.312 193.435 33.6744 193.494 34.0286C193.686 35.5144 195.081 36.7597 196.337 37.4865Z" fill="black"/>
<path d="M234.566 41.5699C234.566 41.6019 236.127 39.4748 236.207 39.3251C237.153 37.6416 237.992 33.8363 236.522 32.249C236.271 31.9924 235.968 31.7917 235.634 31.6597C235.3 31.5278 234.942 31.4678 234.583 31.4834C234.224 31.499 233.872 31.59 233.551 31.7505C233.229 31.9109 232.945 32.1372 232.717 32.4147C231.707 33.5584 231.68 35.4397 231.969 36.856C232.295 38.4914 234.561 41.5699 234.566 41.5699Z" fill="black"/>
<path d="M220.12 100.424C220.719 101.674 223.113 103.631 223.113 103.631C223.113 103.631 223.936 101.658 223.973 101.525C224.385 100.007 224.294 96.8216 222.814 95.8542C222.563 95.7006 222.284 95.6015 221.993 95.5632C221.702 95.525 221.406 95.5485 221.124 95.6322C220.843 95.7159 220.583 95.8579 220.36 96.049C220.137 96.2401 219.957 96.4761 219.831 96.7414C219.259 97.8691 219.612 99.3602 220.12 100.424Z" fill="black"/>
<path d="M215.064 107.922C215.935 108.927 218.554 110.124 218.763 110.22C218.074 111.717 217.485 113.258 216.999 114.833C216.716 115.747 216.464 116.682 216.203 117.617C216.251 117.174 216.293 116.773 216.293 116.719C216.293 115.116 215.358 112.096 213.68 111.556C213.398 111.474 213.103 111.452 212.812 111.491C212.521 111.531 212.242 111.631 211.993 111.786C211.743 111.941 211.53 112.147 211.366 112.39C211.201 112.633 211.09 112.908 211.04 113.197C210.778 114.416 211.515 115.768 212.285 116.655C213.055 117.542 215.283 118.627 215.871 118.9C215.78 119.263 215.684 119.621 215.593 119.969C215.155 121.7 214.727 123.427 214.257 125.11C214.091 125.703 213.91 126.281 213.723 126.863C213.771 126.468 213.803 126.131 213.803 126.083C213.803 124.48 212.868 121.46 211.189 120.92C210.908 120.837 210.612 120.815 210.321 120.855C210.031 120.894 209.751 120.995 209.502 121.15C209.253 121.305 209.039 121.51 208.875 121.754C208.711 121.997 208.6 122.272 208.549 122.561C208.287 123.785 209.025 125.132 209.794 126.019C210.564 126.906 212.574 127.884 213.274 128.215C213.071 128.803 212.862 129.391 212.638 129.952C212.477 130.332 212.344 130.706 212.162 131.08C211.98 131.454 211.815 131.818 211.628 132.181C211.27 132.87 210.906 133.587 210.559 134.249C210.308 134.714 210.062 135.153 209.816 135.591C209.987 135.003 210.297 133.843 210.313 133.747C210.553 132.186 210.094 129.033 208.512 128.247C208.246 128.124 207.957 128.058 207.663 128.053C207.37 128.049 207.079 128.106 206.809 128.222C206.539 128.337 206.297 128.508 206.098 128.723C205.898 128.939 205.747 129.194 205.652 129.471C205.209 130.636 205.733 132.079 206.363 133.079C207.053 134.175 209.356 135.708 209.65 135.895C209.239 136.622 208.827 137.328 208.437 137.991C207.566 139.444 206.759 140.722 206.059 141.796L206.935 142.549C207.635 141.427 208.458 140.07 209.34 138.514C209.762 137.777 210.195 136.98 210.634 136.157C211.476 136.444 212.335 136.683 213.204 136.874C213.247 138.204 214.273 140.588 214.385 140.893C213.643 141.272 212.91 141.636 212.221 141.962C210.773 142.662 209.458 143.255 208.325 143.747L209.271 144.564C210.292 144.089 211.441 143.538 212.686 142.902C213.445 142.517 214.246 142.095 215.064 141.646C215.273 141.919 216.967 144.11 218.116 144.725C219.153 145.259 220.633 145.692 221.766 145.168C222.037 145.054 222.28 144.885 222.48 144.671C222.681 144.456 222.834 144.202 222.929 143.925C223.024 143.647 223.06 143.353 223.034 143.06C223.007 142.768 222.92 142.485 222.776 142.229C221.878 140.711 218.698 140.481 217.165 140.829C217.074 140.829 216.096 141.181 215.513 141.406L216.513 140.871C217.191 140.492 217.854 140.096 218.576 139.674L219.602 139.017C219.949 138.803 220.291 138.536 220.639 138.295C221.435 137.718 222.215 137.098 222.99 136.457C223.321 137.05 224.524 139.129 225.475 139.845C226.427 140.561 227.816 141.187 229.013 140.839C229.298 140.768 229.565 140.638 229.796 140.457C230.027 140.275 230.217 140.047 230.354 139.787C230.491 139.527 230.571 139.242 230.59 138.949C230.608 138.655 230.565 138.362 230.462 138.087C229.804 136.446 226.694 135.741 225.117 135.853C225.021 135.853 223.899 136.067 223.289 136.189C223.749 135.799 224.209 135.414 224.663 135.003C225.972 133.822 227.26 132.582 228.548 131.347L229.74 130.23C229.853 130.439 231.237 132.956 232.3 133.747C233.241 134.452 234.641 135.088 235.838 134.741C236.123 134.669 236.389 134.538 236.62 134.357C236.85 134.176 237.04 133.948 237.177 133.688C237.313 133.428 237.394 133.143 237.413 132.85C237.432 132.557 237.389 132.264 237.287 131.989C236.624 130.353 233.519 129.642 231.942 129.755C231.825 129.755 230.211 130.065 229.804 130.161C230.681 129.338 231.563 128.557 232.477 127.766C233.686 126.73 234.96 125.774 236.293 124.902C236.346 124.998 237.778 127.628 238.863 128.44C239.809 129.145 241.204 129.781 242.407 129.434C242.691 129.362 242.956 129.23 243.186 129.049C243.416 128.867 243.606 128.639 243.742 128.379C243.878 128.12 243.958 127.834 243.976 127.542C243.995 127.249 243.952 126.956 243.85 126.682C243.192 125.046 240.109 124.335 238.505 124.447C238.377 124.447 236.645 124.779 236.335 124.864L236.565 124.704C237.924 123.866 239.355 123.151 240.841 122.566C241.659 122.235 242.444 121.962 243.241 121.716C243.46 122.251 244.47 124.586 245.378 125.426C246.287 126.265 247.559 127.029 248.788 126.804C249.079 126.764 249.358 126.662 249.607 126.507C249.856 126.351 250.07 126.145 250.234 125.902C250.398 125.658 250.51 125.383 250.561 125.094C250.612 124.805 250.602 124.508 250.531 124.223C250.055 122.523 247.046 121.481 245.469 121.417C245.384 121.417 244.507 121.476 243.866 121.529L244.935 121.214C246.223 120.856 247.42 120.605 248.484 120.391C249.093 120.273 249.643 120.183 250.156 120.102C250.637 120.498 252.577 122.075 253.737 122.395C254.897 122.716 256.41 122.807 257.398 122.048C257.638 121.879 257.84 121.661 257.99 121.409C258.14 121.156 258.235 120.875 258.269 120.583C258.303 120.292 258.275 119.996 258.186 119.716C258.098 119.436 257.951 119.178 257.756 118.959C256.554 117.671 253.401 118.125 251.974 118.798C251.851 118.857 250.023 119.985 250.05 120.006C249.552 120.076 249.018 120.15 248.446 120.252C247.377 120.439 246.164 120.669 244.865 121C243.461 121.344 242.078 121.769 240.723 122.272C239.205 122.832 237.738 123.525 236.341 124.341L236.293 124.373C236.64 123.988 237.565 122.876 237.629 122.769C238.495 121.449 239.398 118.397 238.297 117.019C238.107 116.795 237.872 116.613 237.607 116.486C237.343 116.359 237.054 116.29 236.761 116.281C236.467 116.273 236.175 116.327 235.904 116.44C235.633 116.552 235.388 116.72 235.186 116.933C234.294 117.804 234.166 119.338 234.321 120.503C234.492 121.823 236.015 124.244 236.132 124.464C234.733 125.331 233.392 126.29 232.119 127.334C231.374 127.943 230.64 128.572 229.917 129.22L230.494 128.52C231.36 127.2 232.263 124.148 231.157 122.769C230.967 122.546 230.733 122.364 230.468 122.237C230.204 122.11 229.916 122.041 229.623 122.032C229.33 122.024 229.039 122.078 228.768 122.19C228.497 122.303 228.253 122.471 228.051 122.684C227.159 123.555 227.031 125.089 227.18 126.254C227.33 127.419 228.591 129.552 228.933 130.107L228.105 130.856C226.785 132.058 225.475 133.266 224.155 134.41C223.69 134.811 223.215 135.19 222.744 135.575C223.001 135.27 223.209 135.008 223.241 134.966C224.107 133.651 225.01 130.599 223.904 129.22C223.715 128.996 223.48 128.814 223.215 128.686C222.95 128.559 222.662 128.488 222.368 128.48C222.074 128.472 221.782 128.526 221.511 128.639C221.239 128.752 220.995 128.921 220.794 129.135C219.906 130.006 219.778 131.54 219.928 132.705C220.077 133.87 221.221 135.794 221.622 136.446C221.125 136.82 220.628 137.2 220.131 137.542C219.789 137.771 219.473 138.012 219.115 138.22L218.073 138.856C217.394 139.23 216.694 139.626 216.026 139.979C215.561 140.23 215.118 140.46 214.669 140.69C215.134 140.294 216.037 139.498 216.101 139.423C216.994 138.361 217.6 137.088 217.859 135.724C217.964 135.611 218.057 135.487 218.137 135.356C218.3 135.111 218.41 134.836 218.459 134.546C218.508 134.257 218.496 133.96 218.423 133.675C218.35 133.391 218.218 133.125 218.035 132.895C217.852 132.666 217.623 132.477 217.362 132.341C215.759 131.572 212.996 133.132 211.906 134.271C211.841 134.34 211.221 135.147 210.837 135.666C211.013 135.324 211.189 135.003 211.371 134.65C211.729 133.961 212.066 133.266 212.44 132.512L212.937 131.395C213.108 131.027 213.247 130.615 213.402 130.225C213.749 129.306 214.059 128.354 214.348 127.392C214.952 127.702 217.111 128.782 218.292 128.846C219.473 128.91 220.965 128.675 221.793 127.724C221.991 127.507 222.14 127.251 222.233 126.972C222.325 126.694 222.357 126.399 222.328 126.107C222.299 125.815 222.209 125.533 222.063 125.278C221.917 125.024 221.72 124.802 221.483 124.629C220.024 123.624 217.047 124.747 215.796 125.698C215.716 125.762 214.898 126.553 214.455 126.991C214.626 126.414 214.797 125.837 214.947 125.244C215.385 123.534 215.775 121.791 216.176 120.054C216.293 119.52 216.422 118.985 216.55 118.451C216.764 118.563 219.302 119.899 220.622 119.974C221.798 120.044 223.295 119.803 224.123 118.852C224.321 118.635 224.471 118.379 224.563 118.101C224.655 117.822 224.688 117.527 224.658 117.235C224.629 116.943 224.539 116.661 224.393 116.406C224.248 116.152 224.05 115.931 223.813 115.757C222.359 114.752 219.377 115.875 218.127 116.826C218.036 116.901 216.855 118.039 216.571 118.344C216.849 117.174 217.133 116.014 217.464 114.881C217.897 113.348 218.433 111.847 219.067 110.386C219.163 110.439 221.809 111.84 223.166 111.92C224.342 111.989 225.839 111.749 226.667 110.798C226.865 110.58 227.014 110.324 227.106 110.045C227.198 109.767 227.23 109.472 227.2 109.18C227.17 108.888 227.079 108.606 226.933 108.351C226.787 108.097 226.589 107.876 226.352 107.703C224.898 106.698 221.916 107.821 220.671 108.772C220.569 108.847 219.302 110.076 219.067 110.311C219.105 110.231 219.137 110.135 219.174 110.055C219.848 108.606 220.649 107.22 221.568 105.913C222.066 105.18 222.584 104.512 223.102 103.876C223.567 104.186 225.71 105.592 226.924 105.795C228.137 105.998 229.596 105.918 230.526 105.063C230.746 104.869 230.923 104.63 231.045 104.364C231.166 104.097 231.231 103.807 231.233 103.514C231.236 103.22 231.177 102.929 231.059 102.66C230.942 102.391 230.769 102.15 230.553 101.952C229.222 100.798 226.133 101.584 224.786 102.401C224.711 102.449 224.016 102.984 223.514 103.379C223.754 103.096 223.995 102.797 224.225 102.53C225.101 101.519 225.967 100.648 226.737 99.884C227.175 99.4511 227.586 99.0663 227.971 98.7135C228.586 98.783 231.076 99.0289 232.247 98.6547C233.417 98.2806 234.695 97.5217 235.106 96.3459C235.211 96.0724 235.258 95.7798 235.243 95.4871C235.228 95.1944 235.152 94.9081 235.02 94.6467C234.887 94.3853 234.701 94.1546 234.474 93.9695C234.247 93.7844 233.983 93.649 233.701 93.5721C231.98 93.1606 229.607 95.2823 228.784 96.6292C228.714 96.7467 227.816 98.6975 227.848 98.6975H227.886C227.506 99.0289 227.105 99.3923 226.678 99.7931C225.887 100.541 225.005 101.396 224.107 102.391C223.126 103.452 222.207 104.569 221.355 105.736C220.394 107.041 219.552 108.429 218.837 109.884V109.937C218.912 109.403 219.073 107.986 219.073 107.874C219.073 106.271 218.143 103.251 216.459 102.711C216.178 102.629 215.882 102.606 215.591 102.646C215.3 102.685 215.021 102.786 214.772 102.941C214.523 103.096 214.309 103.302 214.145 103.545C213.98 103.788 213.869 104.063 213.819 104.352C213.557 105.704 214.295 107.035 215.064 107.922Z" fill="black"/>
<path d="M243.417 121.428C243.417 121.455 245.191 120.236 245.293 120.145C246.479 119.077 248.158 116.404 247.431 114.774C247.306 114.509 247.128 114.273 246.907 114.081C246.685 113.889 246.426 113.746 246.146 113.661C245.866 113.576 245.571 113.551 245.28 113.587C244.99 113.623 244.71 113.72 244.459 113.871C243.39 114.48 242.856 115.923 242.679 117.078C242.508 118.457 243.417 121.423 243.417 121.428Z" fill="black"/>
<path d="M220.366 56.8765H45.9416V224.011H220.366V56.8765Z" fill="black" stroke="black" stroke-width="0.534454" stroke-linecap="round" stroke-linejoin="round"/>
<path d="M223.263 54.6211H48.8384V221.756H223.263V54.6211Z" fill="white" stroke="black" stroke-width="0.534454" stroke-linecap="round" stroke-linejoin="round"/>
<path d="M134.522 62.6914V212.884" stroke="black" stroke-width="0.534454" stroke-linecap="round" stroke-linejoin="round"/>
<g opacity="0.2">
<path d="M155.28 85.9829H143.907V91.1511H155.28V85.9829Z" fill="black"/>
<path d="M161.64 79.5532H150.267V84.7214H161.64V79.5532Z" fill="black"/>
<path d="M168.561 85.9829H157.188V91.1511H168.561V85.9829Z" fill="black"/>
<path d="M188.357 68.1909H176.984V73.3591H188.357V68.1909Z" fill="black"/>
<path d="M194.717 61.7666H183.344V66.9348H194.717V61.7666Z" fill="black"/>
<path d="M201.644 68.1909H190.271V73.3591H201.644V68.1909Z" fill="black"/>
<path d="M168.561 102.476H157.188V107.644H168.561V102.476Z" fill="black"/>
<path d="M174.921 96.0518H163.548V101.22H174.921V96.0518Z" fill="black"/>
<path d="M181.848 102.476H170.475V107.644H181.848V102.476Z" fill="black"/>
<path d="M204.124 151.106H192.751V156.274H204.124V151.106Z" fill="black"/>
<path d="M210.484 144.682H199.111V149.85H210.484V144.682Z" fill="black"/>
<path d="M217.41 151.106H206.037V156.274H217.41V151.106Z" fill="black"/>
<path d="M204.124 204.664H192.751V209.832H204.124V204.664Z" fill="black"/>
<path d="M210.484 198.239H199.111V203.407H210.484V198.239Z" fill="black"/>
<path d="M217.41 204.664H206.037V209.832H217.41V204.664Z" fill="black"/>
<path d="M158.278 162.891H146.905V168.059H158.278V162.891Z" fill="black"/>
<path d="M164.638 156.461H153.265V161.629H164.638V156.461Z" fill="black"/>
<path d="M171.565 162.891H160.192V168.059H171.565V162.891Z" fill="black"/>
<path d="M158.278 181.527H146.905V186.695H158.278V181.527Z" fill="black"/>
<path d="M164.638 175.103H153.265V180.271H164.638V175.103Z" fill="black"/>
<path d="M171.565 181.527H160.192V186.695H171.565V181.527Z" fill="black"/>
<path d="M185.06 181.527H173.687V186.695H185.06V181.527Z" fill="black"/>
<path d="M191.42 175.103H180.047V180.271H191.42V175.103Z" fill="black"/>
<path d="M198.341 181.527H186.968V186.695H198.341V181.527Z" fill="black"/>
</g>
<path d="M83.2411 200.169V193.708H84.5506V200.169H83.2411Z" fill="white"/>
<path d="M87.1908 200.265C86.8253 200.284 86.4629 200.189 86.1539 199.993C85.8943 199.797 85.7065 199.521 85.6195 199.207C85.5042 198.826 85.4483 198.43 85.4538 198.031V195.867C85.4461 195.463 85.5039 195.061 85.6248 194.675C85.723 194.357 85.929 194.083 86.2074 193.9C86.553 193.702 86.9481 193.608 87.3458 193.628C87.7158 193.612 88.0836 193.691 88.4147 193.857C88.6785 194.003 88.8842 194.235 88.9972 194.515C89.1223 194.835 89.1822 195.176 89.1736 195.52V195.894H87.8856V195.439C87.8869 195.287 87.8762 195.135 87.8535 194.985C87.8395 194.871 87.7889 194.764 87.7092 194.68C87.6031 194.597 87.4695 194.557 87.3351 194.568C87.1942 194.56 87.0559 194.608 86.9503 194.702C86.8699 194.802 86.8182 194.922 86.8006 195.049C86.7788 195.2 86.768 195.351 86.7686 195.503V198.368C86.7668 198.532 86.7829 198.695 86.8167 198.855C86.8395 198.983 86.9032 199.101 86.9984 199.191C87.1087 199.271 87.2416 199.314 87.3778 199.314C87.5141 199.314 87.6469 199.271 87.7573 199.191C87.8535 199.097 87.9187 198.976 87.9444 198.844C87.983 198.681 88.0009 198.514 87.9978 198.347V197.631H87.3672V196.834H89.1896V200.153H88.3238L88.2437 199.571C88.1629 199.764 88.0319 199.932 87.8642 200.057C87.6679 200.197 87.4318 200.27 87.1908 200.265Z" fill="white"/>
<path d="M90.1302 200.169V193.708H91.0495L92.4872 197.075V193.708H93.5561V200.169H92.6796L91.2419 196.594V200.169H90.1302Z" fill="white"/>
<path d="M98.3395 200.26C97.9442 200.282 97.5504 200.195 97.2011 200.009C96.9303 199.842 96.7277 199.584 96.6292 199.282C96.5096 198.909 96.4536 198.519 96.4636 198.127V193.708H97.7676V198.309C97.7673 198.466 97.778 198.624 97.7997 198.779C97.8189 198.918 97.8742 199.049 97.96 199.159C98.067 199.249 98.2023 199.298 98.3422 199.298C98.482 199.298 98.6173 199.249 98.7243 199.159C98.8143 199.051 98.8701 198.919 98.8846 198.779C98.9063 198.624 98.917 198.466 98.9167 198.309V193.708H100.215V198.127C100.225 198.519 100.169 198.909 100.05 199.282C99.9514 199.583 99.751 199.84 99.4832 200.009C99.1316 200.194 98.7364 200.281 98.3395 200.26Z" fill="white"/>
<path d="M101.135 200.169V193.708H103.182C103.513 193.694 103.841 193.77 104.133 193.927C104.376 194.075 104.563 194.298 104.667 194.563C104.798 194.881 104.86 195.223 104.849 195.567C104.865 195.938 104.784 196.306 104.614 196.636C104.465 196.88 104.239 197.068 103.973 197.171C103.675 197.287 103.357 197.343 103.037 197.336H102.439V200.137L101.135 200.169ZM102.449 196.428H102.914C103.066 196.435 103.217 196.404 103.353 196.337C103.406 196.305 103.452 196.262 103.489 196.212C103.526 196.161 103.552 196.104 103.566 196.043C103.609 195.877 103.629 195.706 103.625 195.535C103.628 195.368 103.612 195.202 103.577 195.038C103.556 194.914 103.487 194.803 103.385 194.728C103.24 194.642 103.072 194.603 102.904 194.616H102.449V196.428Z" fill="white"/>
<path d="M170.127 141.513C170.127 141.513 168.369 151.101 168.102 153.939C167.835 156.777 167.567 168.321 169.588 176.151C170.795 180.852 172.466 185.423 174.574 189.795C174.574 189.795 175.921 195.332 176.712 196.818C177.503 198.304 184.274 209.784 184.274 209.784C184.274 209.784 183.868 214.508 183.601 215.321C183.334 216.133 182.382 221.125 182.655 222.611C182.928 224.097 183.328 225.043 182.922 226.934C182.516 228.826 181.976 230.713 182.922 232.338C183.868 233.963 186.166 234.091 186.84 233.145C187.445 232.368 187.889 231.478 188.144 230.527C188.399 229.576 188.461 228.583 188.326 227.608C187.919 224.936 186.567 221.398 186.84 219.912C187.115 218.743 187.522 217.61 188.053 216.534C188.053 216.534 193.189 227.068 193.456 227.88C193.724 228.693 194.269 232.065 194.525 233.145C194.782 234.224 196.284 232.739 196.823 232.076C197.363 231.413 199.389 228.565 198.961 226.673C198.534 224.781 197.358 221.408 197.358 221.408L199.373 224.08C199.412 224.143 199.473 224.189 199.544 224.209C199.615 224.229 199.691 224.222 199.758 224.19C199.824 224.157 199.876 224.101 199.903 224.033C199.931 223.964 199.932 223.888 199.907 223.819C199.528 222.52 199.015 220.799 198.838 220.473C198.566 219.938 198.432 218.175 197.353 216.694C196.273 215.214 193.301 216.555 193.301 216.555L191.003 209.265C191.003 209.265 195.193 195.493 194.381 190.896C193.569 186.3 193.168 182.933 193.435 181.987C193.702 181.041 198.838 166.792 198.838 163.815C198.838 160.839 198.972 153.688 197.353 149.77C196.25 147.174 194.987 144.65 193.569 142.213L170.127 141.513Z" fill="white" stroke="black" stroke-width="0.534454" stroke-miterlimit="10"/>
<path d="M192.868 214.984L191.057 209.244C191.057 209.244 195.247 195.471 194.434 190.875C193.622 186.279 193.221 182.912 193.488 181.966C193.756 181.02 198.416 166.734 198.892 163.794C199.735 159.066 199.22 154.196 197.406 149.749C196.304 147.153 195.04 144.629 193.622 142.191L170.106 141.513C170.106 141.513 168.348 151.101 168.08 153.939C167.813 156.777 167.546 168.321 169.566 176.151C170.781 180.853 172.458 185.424 174.574 189.795C174.574 189.795 175.921 195.332 176.712 196.818C177.503 198.304 184.274 209.784 184.274 209.784C184.274 209.784 184.039 212.499 183.809 214.166C184.743 214.847 185.829 215.289 186.973 215.454L188.042 216.523C188.042 216.523 191.142 217.886 192.868 214.984Z" fill="black" stroke="black" stroke-width="0.534454" stroke-miterlimit="10"/>
<path d="M189.378 203.584C188.732 201.094 187.919 198.01 187.412 196.278C186.466 193.04 183.494 184.798 183.494 184.798L181.062 160.155L176.471 157.183" stroke="white" stroke-width="0.534454" stroke-linecap="round" stroke-linejoin="round"/>
<path d="M190.383 207.486L189.875 205.514" stroke="white" stroke-width="0.534454" stroke-linecap="round" stroke-linejoin="round"/>
<path d="M185.797 154.34C184.493 156.387 183.04 158.888 182.43 160.716" stroke="white" stroke-width="0.534454" stroke-linecap="round" stroke-linejoin="round"/>
<path d="M188.224 150.7C188.224 150.7 187.689 151.459 186.909 152.603" stroke="white" stroke-width="0.534454" stroke-linecap="round" stroke-linejoin="round"/>
<path d="M198.892 220.451C198.619 219.917 198.485 218.153 197.406 216.673C197.245 216.467 197.042 216.299 196.809 216.18C196.576 216.062 196.32 215.997 196.059 215.989C196.978 218.314 196.123 220.174 196.593 221.937C197.128 223.963 197.539 225.716 196.732 227.202C195.925 228.687 193.894 229.5 193.894 229.5H193.857C194.108 230.804 194.392 232.445 194.568 233.139C194.84 234.208 196.326 232.733 196.866 232.07C197.406 231.408 199.431 228.559 199.004 226.667C198.576 224.775 197.4 221.403 197.4 221.403L199.741 224.492C199.769 224.528 199.809 224.553 199.853 224.563C199.897 224.573 199.944 224.568 199.985 224.548C200.025 224.528 200.058 224.494 200.077 224.453C200.096 224.411 200.1 224.365 200.089 224.321C199.693 223.006 199.079 220.826 198.892 220.451Z" fill="black" stroke="black" stroke-width="0.534454" stroke-miterlimit="10"/>
<path d="M188.39 227.902C188.192 228.543 187.935 229.334 187.684 230.04C187.15 231.526 185.386 231.643 184.173 230.312C183.41 229.349 182.982 228.163 182.954 226.935C182.548 228.827 182.008 230.713 182.954 232.338C183.9 233.963 186.198 234.091 186.872 233.145C188.028 231.655 188.571 229.779 188.39 227.902Z" fill="black" stroke="black" stroke-width="0.534454" stroke-miterlimit="10"/>
<path d="M168.112 108.307C168.112 108.307 166.06 109.023 166.146 109.29C166.231 109.558 162.869 126.393 162.869 126.393C162.869 126.393 160.48 132.593 160.732 134.805C160.983 137.018 162.869 139.674 164.98 139.674C165.665 139.689 166.341 139.515 166.934 139.172C167.526 138.829 168.014 138.33 168.342 137.729C168.786 137.109 170.293 134.185 170.293 134.185C170.293 134.185 169.759 139.765 169.582 140.294C169.406 140.823 168.513 142.24 168.962 142.683C169.644 143.262 170.424 143.712 171.266 144.014C175.719 144.932 180.265 145.318 184.809 145.163C190.832 144.81 194.461 143.218 194.461 143.218C194.66 142.554 194.897 141.903 195.172 141.267C195.348 141 195.706 140.561 195.706 140.561C195.706 140.561 201.371 139.941 201.724 139.583C202.077 139.225 203.055 137.729 202.964 135.334C202.873 132.94 203.76 112.23 203.322 111.786C202.525 111.22 201.683 110.72 200.805 110.29L190.549 104.555L175.253 106.565L168.112 108.307Z" fill="#33EB5B" stroke="black" stroke-width="0.534454" stroke-linecap="round" stroke-linejoin="round"/>
<path d="M168.219 112.716C168.219 112.716 170.074 116.11 170.533 118.275" stroke="black" stroke-width="0.534454" stroke-miterlimit="10"/>
<path d="M164.254 127.703C164.254 127.703 166.675 128.007 167.599 129.306" stroke="black" stroke-width="0.534454" stroke-linecap="round" stroke-linejoin="round"/>
<path d="M166.878 127.547C166.878 127.547 168.064 128.162 168.321 128.729" stroke="black" stroke-width="0.534454" stroke-linecap="round" stroke-linejoin="round"/>
<path d="M161.897 130.893C161.897 130.893 162.869 128.948 164.377 128.681C165.884 128.413 168.006 129.83 168.006 129.83L169.245 129.386L170.849 132.662L170.314 134.169" stroke="black" stroke-width="0.534454" stroke-linecap="round" stroke-linejoin="round"/>
<path d="M199.276 113.801C199.276 113.801 197.946 116.81 197.523 117.794" stroke="black" stroke-width="0.534454" stroke-linecap="round" stroke-linejoin="round"/>
<path d="M195.717 140.54L190.565 135.676" stroke="black" stroke-width="0.534454" stroke-linecap="round" stroke-linejoin="round"/>
<path d="M193.697 139.824L188.534 137.151" stroke="black" stroke-width="0.534454" stroke-linecap="round" stroke-linejoin="round"/>
<path d="M173.788 144.249L187.428 142.774" stroke="black" stroke-width="0.534454" stroke-linecap="round" stroke-linejoin="round"/>
<path d="M185.13 111.99C185.13 111.99 183.558 127.382 183.467 128.21" stroke="black" stroke-width="0.534454" stroke-linecap="round" stroke-linejoin="round"/>
<path d="M182.634 134.201L182.174 139.268" stroke="black" stroke-width="0.534454" stroke-linecap="round" stroke-linejoin="round"/>
<path d="M191.516 101.985L190.159 105.416L185.685 110.531L181.688 105.256L182.019 98.6016L187.043 103.182L191.516 101.985Z" fill="white" stroke="black" stroke-width="0.534454" stroke-miterlimit="10"/>
<path d="M187.449 80.8949C187.449 80.8949 179.576 83.7436 178.491 85.9829C177.574 88.1005 176.87 90.3045 176.391 92.5621C176.391 92.8346 172.65 94.3311 171.912 95.4802C171.175 96.6292 171.976 100.028 171.912 100.98C171.848 101.931 168.385 103.016 168.043 105.116C167.811 106.176 167.835 107.275 168.112 108.323L174.152 107.372C174.152 107.372 178.085 108.932 180.191 108.12C182.297 107.308 182.495 103.235 182.361 101.878C182.227 100.52 182.019 98.6174 182.019 98.6174L184.803 90.7396L191.11 88.8369L195.113 92.5781L191.436 102.241C191.436 102.241 190.276 104.587 190.479 105.197C190.682 105.806 192.537 106.42 192.537 106.42L200.816 110.29C201.027 109.657 201.097 108.986 201.019 108.323C200.885 107.254 199.116 104.929 199.116 104.251C199.116 103.572 201.425 100.926 200.34 98.5533C199.255 96.1803 198.101 94.8869 197.491 93.6684C196.882 92.4498 198.026 90.1356 196.813 87.1534C195.599 84.1711 191.586 81.5897 190.501 80.9804C189.416 80.3712 187.449 80.8949 187.449 80.8949Z" fill="black" stroke="black" stroke-width="0.534454" stroke-miterlimit="10"/>
<path d="M190.297 86.3892C190.297 86.3892 184.194 89.1042 183.718 90.3922C183.243 91.6803 181.955 97.6555 182.019 98.6014C182.083 99.5474 186.161 104.438 186.973 104.577C187.786 104.716 191.97 102.289 192.719 101.744C193.467 101.199 195.925 93.0378 195.861 91.7497C195.797 90.4617 190.976 86.464 190.297 86.3892Z" fill="white" stroke="black" stroke-width="0.534454" stroke-miterlimit="10"/>
<path d="M183.66 91.4504C187.818 90.3388 190.303 86.3892 190.303 86.3892C190.303 86.3892 193.365 91.8673 196.139 92.7011" stroke="black" stroke-width="0.534454" stroke-miterlimit="10"/>
<path d="M190.298 86.3892C190.298 86.3892 184.21 91.4504 182.131 91.8673" stroke="black" stroke-width="0.534454" stroke-miterlimit="10"/>
<path d="M190.431 98.5371C190.165 98.7434 189.859 98.8922 189.532 98.9741C189.206 99.056 188.866 99.0692 188.534 99.0128" stroke="black" stroke-width="0.534454" stroke-linecap="round" stroke-linejoin="round"/>
<path d="M186.225 99.4834C186.695 100.021 187.33 100.387 188.031 100.522C188.732 100.658 189.458 100.555 190.094 100.232" stroke="black" stroke-width="0.534454" stroke-linecap="round" stroke-linejoin="round"/>
<path d="M188.534 92.9738C188.534 92.9738 186.84 91.8194 185.21 92.5622" stroke="black" stroke-width="0.534454" stroke-linecap="round" stroke-linejoin="round"/>
<path d="M191.676 93.3797C191.676 93.3797 193.574 92.6315 194.456 93.5133" stroke="black" stroke-width="0.534454" stroke-linecap="round" stroke-linejoin="round"/>
<path d="M187.31 95.0154C187.267 95.427 186.973 95.7316 186.658 95.6995C186.487 95.6552 186.34 95.5465 186.247 95.396C186.154 95.2456 186.124 95.0652 186.161 94.8925C186.209 94.4863 186.498 94.1817 186.818 94.2137C186.988 94.258 187.134 94.3662 187.225 94.5156C187.317 94.6651 187.347 94.8442 187.31 95.0154Z" fill="black"/>
<path d="M192.671 95.8172C192.685 95.9079 192.678 96.0008 192.651 96.0887C192.624 96.1765 192.577 96.2568 192.513 96.3234C192.45 96.3901 192.372 96.4413 192.286 96.473C192.2 96.5047 192.107 96.5161 192.016 96.5063C191.924 96.4965 191.836 96.4658 191.759 96.4166C191.681 96.3673 191.616 96.3009 191.568 96.2223C191.52 96.1438 191.491 96.0553 191.483 95.9637C191.475 95.8721 191.488 95.7799 191.521 95.6942C191.564 95.2827 191.858 94.9781 192.173 95.0101C192.345 95.0544 192.492 95.1632 192.584 95.3136C192.677 95.464 192.708 95.6445 192.671 95.8172Z" fill="black"/>
<path d="M179.454 108.216L181.848 112.449L184.884 109.413L181.688 105.255L179.454 108.216Z" fill="#33EB5B" stroke="black" stroke-width="0.534454" stroke-linecap="round" stroke-linejoin="round"/>
<path d="M186.802 109.574L188.961 112.689L192.537 106.404L190.559 104.539L186.802 109.574Z" fill="#33EB5B" stroke="black" stroke-width="0.534454" stroke-linecap="round" stroke-linejoin="round"/>
<path d="M176.69 130.685H171.998L171.41 119.819H177.278L176.69 130.685Z" fill="white" stroke="black" stroke-width="0.534454" stroke-miterlimit="10"/>
<path d="M177.797 118.889H170.79V120.535H177.797V118.889Z" fill="black" stroke="black" stroke-width="0.534454" stroke-miterlimit="10"/>
<path d="M176.92 118.12H171.768V118.895H176.92V118.12Z" fill="black" stroke="black" stroke-width="0.534454" stroke-miterlimit="10"/>
<path d="M171.186 131.663C171.186 131.689 171.186 131.716 171.186 131.727C171.045 132.131 170.79 132.485 170.451 132.746C170.112 133.008 169.704 133.164 169.278 133.196C169.046 133.22 168.811 133.195 168.59 133.124C168.368 133.052 168.163 132.935 167.989 132.78C167.67 132.432 167.481 131.984 167.455 131.513C167.367 131.077 167.391 130.627 167.523 130.202C167.656 129.778 167.893 129.394 168.214 129.087C168.438 128.819 169.283 128.13 169.347 127.788L169.823 124.047C169.823 124.047 174.483 122.978 174.884 123.037C174.967 123.048 175.046 123.08 175.114 123.128C175.183 123.176 175.239 123.239 175.279 123.313C175.318 123.387 175.34 123.469 175.342 123.553C175.344 123.637 175.326 123.72 175.29 123.795C175.189 124.1 174.483 124.25 174.328 124.298C174.173 124.346 171.896 124.907 171.896 124.907L171.089 125.869C171.482 125.673 171.887 125.504 172.303 125.361C172.458 125.361 174.975 125.009 175.29 124.961C175.382 124.957 175.473 124.976 175.555 125.018C175.636 125.059 175.706 125.121 175.757 125.197C175.808 125.274 175.839 125.362 175.846 125.453C175.853 125.545 175.836 125.636 175.798 125.719C175.595 126.126 175.445 126.222 175.29 126.222C175.135 126.222 172.618 126.681 172.618 126.681L171.202 127.895C171.202 127.895 173.126 127.285 173.339 127.285C173.553 127.285 175.312 127.237 175.365 127.542C175.405 127.696 175.385 127.86 175.31 128.001C175.235 128.141 175.109 128.248 174.959 128.301C174.606 128.402 173.238 128.606 173.238 128.606L171.715 129.413H173.184C173.184 129.413 174.606 129.872 174.905 129.947C175.205 130.022 175.44 130.15 175.007 130.604C174.574 131.059 171.453 130.695 171.453 130.695C171.453 130.695 171.239 131.417 171.186 131.663Z" fill="white" stroke="black" stroke-width="0.534454" stroke-miterlimit="10"/>
<path d="M195.749 129.482L194.744 130.823C194.744 130.823 194.744 138.84 195.06 139.508C195.375 140.176 197.828 142.026 199.148 142.026C200.468 142.026 203.055 139.006 203.178 138.504C203.301 138.001 199.907 128.242 199.971 127.991C200.035 127.74 199.661 127.424 199.218 127.424C198.774 127.424 195.749 129.482 195.749 129.482Z" fill="#33EB5B" stroke="black" stroke-width="0.534454" stroke-linecap="round" stroke-linejoin="round"/>
<path d="M199.239 124.709L199.399 128.098C199.399 128.098 199.212 129.482 198.33 130.049C197.695 130.407 196.981 130.602 196.251 130.615L195.685 129.482L194.808 128.6L199.239 124.709Z" fill="white" stroke="black" stroke-width="0.534454" stroke-miterlimit="10"/>
<path d="M200.254 120.102L193.878 118.771L189.886 129.418L195.279 130.401L200.254 120.102Z" fill="black" stroke="black" stroke-width="0.534454" stroke-miterlimit="10"/>
<path d="M199.383 122.807C199.383 122.807 195.108 122.999 195.06 123.341C195.011 123.683 195.156 124.1 195.3 124.148C195.444 124.196 199.239 124.72 199.239 124.72C199.239 124.72 200.308 124.479 200.233 123.624C200.236 123.514 200.215 123.403 200.173 123.301C200.13 123.199 200.067 123.106 199.987 123.029C199.908 122.952 199.813 122.893 199.709 122.855C199.605 122.816 199.494 122.8 199.383 122.807Z" fill="white" stroke="black" stroke-width="0.534454" stroke-miterlimit="10"/>
<path d="M196.962 124.469C196.962 124.469 193.221 124.041 193.023 124.282C192.826 124.522 192.644 124.848 193.21 125.089C194.615 125.557 196.042 125.953 197.486 126.275C197.746 126.261 198 126.189 198.23 126.067C198.459 125.944 198.66 125.773 198.817 125.565C198.887 125.452 198.932 125.325 198.949 125.193C198.965 125.061 198.953 124.927 198.913 124.8L196.962 124.469Z" fill="white" stroke="black" stroke-width="0.534454" stroke-miterlimit="10"/>
<path d="M195.017 125.703C195.017 125.703 192.168 125.137 192.024 125.42C191.88 125.703 191.837 126.179 192.12 126.371C192.403 126.564 196.203 127.601 196.438 127.697C196.674 127.793 197.245 127.51 197.433 127.13C197.544 126.859 197.561 126.558 197.481 126.275L195.017 125.703Z" fill="white" stroke="black" stroke-width="0.534454" stroke-miterlimit="10"/>
<path d="M195.108 127.366C195.108 127.366 192.97 126.938 192.879 127.179C192.788 127.419 192.735 127.938 193.162 128.077C193.59 128.216 196.059 129.215 196.487 128.932C196.914 128.649 196.77 127.89 196.77 127.89L195.108 127.366Z" fill="white" stroke="black" stroke-width="0.534454" stroke-miterlimit="10"/>
<path d="M207.86 64.9097H227.244C228.115 64.9097 228.949 65.2554 229.565 65.8708C230.18 66.4862 230.526 67.3209 230.526 68.1912V81.3281C230.526 82.1984 230.18 83.0331 229.565 83.6485C228.949 84.2639 228.115 84.6096 227.244 84.6096H215.861L210.655 91.9424V84.6096H207.86C207.428 84.6104 207.001 84.526 206.602 84.3614C206.204 84.1968 205.841 83.9552 205.536 83.6504C205.231 83.3456 204.988 82.9836 204.823 82.5851C204.658 82.1866 204.573 81.7595 204.573 81.3281V68.1912C204.573 67.7598 204.658 67.3327 204.823 66.9342C204.988 66.5357 205.231 66.1737 205.536 65.8689C205.841 65.5641 206.204 65.3225 206.602 65.1579C207.001 64.9933 207.428 64.909 207.86 64.9097Z" fill="black" stroke="black" stroke-width="0.534454" stroke-linecap="round" stroke-linejoin="round"/>
<path d="M216.229 81.8837C215.858 81.8671 215.496 81.7654 215.171 81.5866C214.846 81.4077 214.566 81.1564 214.353 80.8522L210.831 75.8016C210.476 75.2783 210.341 74.6361 210.456 74.014C210.571 73.392 210.926 72.8402 211.445 72.4782C211.963 72.1162 212.604 71.9731 213.227 72.08C213.851 72.1869 214.407 72.5351 214.776 73.0492L216.486 75.5023L223.434 67.0366C223.634 66.7909 223.882 66.5872 224.161 66.4371C224.44 66.2869 224.747 66.1933 225.062 66.1616C225.378 66.1298 225.697 66.1605 226.001 66.252C226.304 66.3434 226.587 66.4938 226.833 66.6945C227.078 66.8952 227.282 67.1424 227.432 67.4218C227.582 67.7013 227.676 68.0076 227.708 68.3232C227.74 68.6389 227.709 68.9577 227.617 69.2614C227.526 69.5652 227.376 69.848 227.175 70.0936L218.185 81.0072C217.959 81.2814 217.675 81.5022 217.354 81.6537C217.032 81.8052 216.681 81.8838 216.325 81.8837H216.229Z" fill="#33EB5B"/>
<path d="M225.299 66.689C225.732 66.6872 226.153 66.8386 226.485 67.1166C226.676 67.2718 226.833 67.463 226.95 67.6793C227.066 67.8956 227.138 68.1327 227.162 68.377C227.187 68.6213 227.163 68.868 227.091 69.1029C227.02 69.3379 226.903 69.5564 226.747 69.7461L217.774 80.6597C217.598 80.8735 217.377 81.0458 217.126 81.1641C216.876 81.2823 216.602 81.3437 216.325 81.3438H216.261C215.973 81.3318 215.691 81.2533 215.438 81.1142C215.185 80.9751 214.967 80.7793 214.802 80.5421L211.28 75.4915C211.13 75.2905 211.022 75.0614 210.962 74.8178C210.903 74.5743 210.893 74.3212 210.933 74.0736C210.973 73.826 211.062 73.589 211.196 73.3767C211.329 73.1644 211.504 72.9811 211.71 72.8377C211.915 72.6943 212.148 72.5938 212.393 72.542C212.639 72.4903 212.892 72.4884 213.138 72.5366C213.384 72.5847 213.618 72.6819 213.826 72.8222C214.034 72.9626 214.211 73.1433 214.348 73.3537L216.486 76.384L223.893 67.3785C224.067 67.1639 224.287 66.991 224.537 66.8726C224.787 66.7542 225.06 66.6933 225.336 66.6944M225.336 65.6255C224.902 65.6241 224.473 65.7194 224.08 65.9042C223.687 66.0891 223.341 66.359 223.065 66.6944L216.555 74.6096L215.251 72.7391C214.786 72.1519 214.114 71.7646 213.373 71.656C212.632 71.5475 211.877 71.726 211.263 72.1551C210.649 72.5842 210.222 73.2315 210.07 73.9648C209.917 74.6982 210.05 75.4621 210.441 76.1008L213.963 81.1567C214.224 81.5276 214.566 81.8337 214.963 82.0514C215.361 82.2692 215.803 82.3928 216.256 82.4127H216.374C216.808 82.4132 217.236 82.3177 217.629 82.1329C218.022 81.9481 218.369 81.6786 218.645 81.3438L227.57 70.4302C227.925 69.9999 228.151 69.4775 228.22 68.924C228.289 68.3706 228.199 67.8088 227.961 67.3044C227.723 66.8 227.346 66.3738 226.875 66.0756C226.403 65.7773 225.857 65.6194 225.299 65.6201L225.336 65.6255Z" fill="#00E61B"/>
</g>
<defs>
<clipPath id="clip0_3550_5531">
<rect width="258.291" height="234" fill="white"/>
</clipPath>
</defs>
</svg>
